<svg xmlns="http://www.w3.org/2000/svg" viewBox="0 0 24 24">
  <path fill="#2496ED" d="M21.81 10.25c-.12-.78-.5-1.46-1.1-1.97-.6-.5-1.37-.78-2.17-.78h-.14c-.08-1.28-.45-2.5-1.08-3.57a7.4 7.4 0 0 0-2.86-2.86 7.4 7.4 0 0 0-3.57-1.08c-.5-.04-1 .04-1.47.23-.47.2-.88.5-1.2.88a3.5 3.5 0 0 0-.88 1.2c-.19.47-.27.97-.23 1.47.04.5.19.98.44 1.4H2v2.5h1.5v1H2v1h1.5v1H2v1h1.5v1H2v1h1.5v1H2v1h1.5v1H2v2.5h12.5c1.28 0 2.5-.45 3.43-1.27.93-.82 1.55-1.95 1.73-3.18.18-1.23-.08-2.49-.73-3.53M8 8.5h1.5V7H8v1.5m0 2H9.5V9H8v1.5m0 2H9.5V11H8v1.5m2-4H11.5V7H10v1.5m0 2H11.5V9H10v1.5m0 2H11.5V11H10v1.5m2-4H13.5V7H12v1.5m0 2H13.5V9H12v1.5"/>
</svg>
