<svg xmlns="http://www.w3.org/2000/svg" viewBox="0 0 24 24">
  <path fill="#336791" d="M18.16 2.17c-1.1-.03-2.38.08-3.51.35-3.12.78-2.79 2.66-2.81 5.45v.45H9.5c-2.64 0-2.78 1.24-2.95 2.04l-.04.18C6.24 12.5 6.5 14.08 8 14.25h2.47v11.5c1.32-.02 2.27-.31 2.74-1.03.56-.84.49-2 .39-3.25l.58 2.96c.55 1.01 1.57 1.35 2.85 1.22 1.01-.11 1.75-.52 2.2-1.17.4-.58.62-1.37.65-2.33l-.03-8.84c.03-1.11.25-1.97.67-2.58.18-.27.4-.5.65-.7-.53-.12-1.1-.18-1.7-.18-1.01 0-1.93.24-2.73.7v-.55c-.01-2.42.44-4.07 2.16-4.56.38-.11.8-.17 1.24-.17.47 0 .92.06 1.35.17l-.01-.01"/>
</svg>
